[h264 @ 0x55903bf387c0] Reinit context to 1280x720, pix_fmt: yuv420p
Input #0, mov,mp4,m4a,3gp,3g2,mj2, from '/var/www/html/project/media/video/original/WhatsApp_Video_2025-03-03_at_21.15.46.mp4':
  Metadata:
    major_brand     : mp42
    minor_version   : 0
    compatible_brands: mp42isom
  Duration: 00:01:08.57, start: 0.000000, bitrate: 2136 kb/s
    Stream #0:0(und): Video: h264 (High), 1 reference frame (avc1 / 0x31637661), yuv420p(tv, bt709, left), 1280x720, 2071 kb/s, 30 fps, 30 tbr, 30k tbn, 60k tbc (default)
    Stream #0:1(und): Audio: aac (LC) (mp4a / 0x6134706D), 44100 Hz, stereo, fltp, 62 kb/s (default)
[h264 @ 0x55903bf3bf40] Reinit context to 1280x720, pix_fmt: yuv420p
Input #1, mov,mp4,m4a,3gp,3g2,mj2, from '/var/www/html/project/static/images/templates/Codino.mp4':
  Metadata:
    major_brand     : mp42
    minor_version   : 1
    compatible_brands: isommp41mp42
    creation_time   : 2021-07-11T07:02:58.000000Z
  Duration: 00:00:02.00, start: 0.000000, bitrate: 1007 kb/s
    Stream #1:0(ita): Audio: aac (LC) (mp4a / 0x6134706D), 44100 Hz, stereo, fltp, 102 kb/s (default)
    Metadata:
      creation_time   : 2021-07-11T07:02:58.000000Z
      handler_name    : Core Media Audio
    Stream #1:1(und): Video: h264 (High), 1 reference frame (avc1 / 0x31637661), yuv420p(tv, bt709, progressive, left), 1280x720 [SAR 1:1 DAR 16:9], 813 kb/s, 25 fps, 25 tbr, 25k tbn, 50k tbc (default)
    Metadata:
      creation_time   : 2021-07-11T07:02:58.000000Z
      handler_name    : Core Media Video
[Parsed_scale_0 @ 0x55903bf566c0] w:1280 h:720 flags:'bilinear' interl:0
[Parsed_scale_2 @ 0x55903bfd4340] w:1280 h:720 flags:'bilinear' interl:0
Stream mapping:
  Stream #0:0 (h264) -> scale
  Stream #0:1 (aac) -> concat:in0:a0
  Stream #1:0 (aac) -> concat:in1:a0
  Stream #1:1 (h264) -> scale
  concat:out:v0 -> Stream #0:0 (libx264)
  concat:out:a0 -> Stream #0:1 (aac)
Press [q] to stop, [?] for help
[h264 @ 0x55903bff3540] Reinit context to 1280x720, pix_fmt: yuv420p
[h264 @ 0x55903c3b76c0] Reinit context to 1280x720, pix_fmt: yuv420p
[Parsed_scale_0 @ 0x55903d1d6900] w:1280 h:720 flags:'bilinear' interl:0
[Parsed_scale_2 @ 0x55903d1deb00] w:1280 h:720 flags:'bilinear' interl:0
[graph 0 input from stream 0:0 @ 0x55903d1e1e80] w:1280 h:720 pixfmt:yuv420p tb:1/30000 fr:30/1 sar:0/1 sws_param:flags=2
[graph 0 input from stream 1:1 @ 0x55903d1e2f00] w:1280 h:720 pixfmt:yuv420p tb:1/25000 fr:25/1 sar:1/1 sws_param:flags=2
[graph_0_in_0_1 @ 0x55903d1e3e80] tb:1/44100 samplefmt:fltp samplerate:44100 chlayout:0x3
[graph_0_in_1_0 @ 0x55903d1e4fc0] tb:1/44100 samplefmt:fltp samplerate:44100 chlayout:0x3
[Parsed_scale_0 @ 0x55903d1d6900] w:1280 h:720 fmt:yuv420p sar:0/1 -> w:1280 h:720 fmt:yuv420p sar:0/1 flags:0x2
[Parsed_setsar_1 @ 0x55903bfdde00] w:1280 h:720 sar:0/1 dar:16/9 -> sar:1/1 dar:16/9
[Parsed_scale_2 @ 0x55903d1deb00] w:1280 h:720 fmt:yuv420p sar:1/1 -> w:1280 h:720 fmt:yuv420p sar:1/1 flags:0x2
[Parsed_setsar_3 @ 0x55903d1df0c0] w:1280 h:720 sar:1/1 dar:16/9 -> sar:1/1 dar:16/9
[libx264 @ 0x55903bfd5040] using SAR=1/1
[libx264 @ 0x55903bfd5040] using cpu capabilities: MMX2 SSE2Fast SSSE3 SSE4.2 AVX FMA3 BMI2 AVX2
[libx264 @ 0x55903bfd5040] profile High, level 3.1
[libx264 @ 0x55903bfd5040] 264 - core 155 r2917 0a84d98 - H.264/MPEG-4 AVC codec - Copyleft 2003-2018 - http://www.videolan.org/x264.html - options: cabac=1 ref=1 deblock=1:0:0 analyse=0x3:0x113 me=hex subme=2 psy=1 psy_rd=1.00:0.00 mixed_ref=0 me_range=16 chroma_me=1 trellis=0 8x8dct=1 cqm=0 deadzone=21,11 fast_pskip=1 chroma_qp_offset=0 threads=22 lookahead_threads=5 sliced_threads=0 nr=0 decimate=1 interlaced=0 bluray_compat=0 constrained_intra=0 bframes=3 b_pyramid=2 b_adapt=1 b_bias=0 direct=1 weightb=1 open_gop=0 weightp=1 keyint=250 keyint_min=25 scenecut=40 intra_refresh=0 rc_lookahead=10 rc=crf mbtree=1 crf=18.0 qcomp=0.60 qpmin=0 qpmax=69 qpstep=4 ip_ratio=1.40 aq=1:1.00
Output #0, mp4, to '/var/www/html/project/media/video/watermarks/WhatsApp_Video_2025-03-03_at_21.15.46.mp4':
  Metadata:
    major_brand     : mp42
    minor_version   : 0
    compatible_brands: mp42isom
    encoder         : Lavf58.29.100
    Stream #0:0: Video: h264 (libx264), 1 reference frame (avc1 / 0x31637661), yuv420p(progressive), 1280x720 [SAR 1:1 DAR 16:9], q=-1--1, 30 fps, 15360 tbn, 30 tbc (default)
    Metadata:
      encoder         : Lavc58.54.100 libx264
    Side data:
      cpb: bitrate max/min/avg: 0/0/0 buffer size: 0 vbv_delay: -1
    Stream #0:1: Audio: aac (LC) (mp4a / 0x6134706D), 44100 Hz, stereo, fltp, delay 1024, 128 kb/s (default)
    Metadata:
      encoder         : Lavc58.54.100 aac
[Parsed_concat_4 @ 0x55903d1dff00] EOF on in0:v0, 1 streams left in segment.
[Parsed_concat_4 @ 0x55903d1dff00] EOF on in0:a0, 0 streams left in segment.
[Parsed_concat_4 @ 0x55903d1dff00] Segment finished at pts=68566733
[Parsed_concat_4 @ 0x55903d1dff00] EOF on in1:a0, 1 streams left in segment.
[Parsed_concat_4 @ 0x55903d1dff00] EOF on in1:v0, 0 streams left in segment.
[Parsed_concat_4 @ 0x55903d1dff00] Segment finished at pts=70585418
No more output streams to write to, finishing.
frame= 2107 fps= 81 q=-1.0 Lsize=   30785kB time=00:01:10.58 bitrate=3572.7kbits/s speed=2.71x    
[AVIOContext @ 0x55903bf36c00] Statistics: 0 seeks, 52 writeouts
video:29605kB audio:1104kB subtitle:0kB other streams:0kB global headers:0kB muxing overhead: 0.245907%
Input file #0 (/var/www/html/project/media/video/original/WhatsApp_Video_2025-03-03_at_21.15.46.mp4):
  Input stream #0:0 (video): 2057 packets read (17750617 bytes); 2057 frames decoded; 
  Input stream #0:1 (audio): 2953 packets read (538567 bytes); 2953 frames decoded (3023872 samples); 
  Total: 5010 packets (18289184 bytes) demuxed
Input file #1 (/var/www/html/project/static/images/templates/Codino.mp4):
  Input stream #1:0 (audio): 89 packets read (26579 bytes); 87 frames decoded (89024 samples); 
  Input stream #1:1 (video): 50 packets read (203365 bytes); 50 frames decoded; 
  Total: 139 packets (229944 bytes) demuxed
Output file #0 (/var/www/html/project/media/video/watermarks/WhatsApp_Video_2025-03-03_at_21.15.46.mp4):
  Output stream #0:0 (video): 2107 frames encoded; 2107 packets muxed (30315742 bytes); 
  Output stream #0:1 (audio): 3041 frames encoded (3113841 samples); 3042 packets muxed (1130718 bytes); 
  Total: 5149 packets (31446460 bytes) muxed
[AVIOContext @ 0x55903bf86440] Statistics: 2 seeks, 123 writeouts
[libx264 @ 0x55903bfd5040] frame I:10    Avg QP:13.66  size: 99787
[libx264 @ 0x55903bfd5040] frame P:596   Avg QP:18.00  size: 32496
[libx264 @ 0x55903bfd5040] frame B:1501  Avg QP:22.05  size:  6629
[libx264 @ 0x55903bfd5040] consecutive B-frames:  4.4%  1.4%  1.1% 93.0%
[libx264 @ 0x55903bfd5040] mb I  I16..4: 21.5% 17.4% 61.1%
[libx264 @ 0x55903bfd5040] mb P  I16..4:  5.9%  7.6%  2.3%  P16..4: 34.4% 19.6% 16.1%  0.0%  0.0%    skip:14.0%
[libx264 @ 0x55903bfd5040] mb B  I16..4:  0.9%  0.6%  0.1%  B16..8: 28.1%  9.7%  1.1%  direct: 9.5%  skip:50.0%  L0:35.3% L1:40.1% BI:24.6%
[libx264 @ 0x55903bfd5040] 8x8 transform intra:44.2% inter:45.1%
[libx264 @ 0x55903bfd5040] coded y,uvDC,uvAC intra: 47.0% 65.5% 23.5% inter: 17.3% 12.7% 0.9%
[libx264 @ 0x55903bfd5040] i16 v,h,dc,p: 49% 24% 21%  5%
[libx264 @ 0x55903bfd5040] i8 v,h,dc,ddl,ddr,vr,hd,vl,hu: 30% 31% 20%  3%  3%  2%  3%  3%  4%
[libx264 @ 0x55903bfd5040] i4 v,h,dc,ddl,ddr,vr,hd,vl,hu: 25% 25% 14%  5%  6%  5%  7%  5%  7%
[libx264 @ 0x55903bfd5040] i8c dc,h,v,p: 45% 22% 28%  6%
[libx264 @ 0x55903bfd5040] Weighted P-Frames: Y:1.0% UV:0.0%
[libx264 @ 0x55903bfd5040] kb/s:3436.76
[aac @ 0x55903bfd7e00] Qavg: 832.680
[AVIOContext @ 0x55903bf3fb00] Statistics: 83423261 bytes read, 2304 seeks
[AVIOContext @ 0x55903c008100] Statistics: 1530915 bytes read, 42 seeks
